<svg id="svg" version="1.1" xmlns="http://www.w3.org/2000/svg" xmlns:xlink="http://www.w3.org/1999/xlink" width="400" height="400" viewBox="0, 0, 400,400"><g id="svgg"><path id="path0" d="M71.846 5.846 L 66.000 11.692 66.000 54.572 L 66.000 97.452 52.577 98.530 C 31.654 100.209,31.998 99.288,32.011 153.722 C 32.030 229.589,38.510 238.524,94.327 239.640 L 126.326 240.280 125.663 274.640 C 124.826 318.042,120.384 326.000,97.000 326.000 C 73.297 326.000,60.649 341.411,58.655 372.720 C 57.262 394.610,59.257 400.588,67.635 399.620 C 72.974 399.003,73.005 398.902,74.067 379.000 C 75.694 348.503,79.174 344.246,105.868 340.101 C 134.467 335.661,140.000 325.357,140.000 276.531 L 140.000 240.000 153.000 240.000 L 166.000 240.000 166.000 253.580 C 166.000 342.440,273.569 387.415,337.103 325.119 C 410.223 253.424,340.513 129.928,241.500 155.752 L 228.000 159.272 228.000 133.858 C 228.000 102.047,227.076 100.460,207.500 98.662 L 194.000 97.422 194.000 54.557 L 194.000 11.692 188.154 5.846 C 179.515 -2.793,160.485 -2.793,151.846 5.846 L 146.000 11.692 146.000 54.846 L 146.000 98.000 130.000 98.000 L 114.000 98.000 114.000 54.846 L 114.000 11.692 108.154 5.846 C 99.515 -2.793,80.485 -2.793,71.846 5.846 M97.541 56.500 L 98.081 98.000 89.041 98.000 L 80.000 98.000 80.000 59.869 C 80.000 17.074,80.851 13.436,90.633 14.383 L 97.000 15.000 97.541 56.500 M177.541 56.500 L 178.081 98.000 169.041 98.000 L 160.000 98.000 160.000 59.869 C 160.000 17.074,160.851 13.436,170.633 14.383 L 177.000 15.000 177.541 56.500 M71.000 133.027 C 71.000 135.624,69.442 137.221,66.500 137.639 C 62.038 138.273,59.974 132.693,63.402 129.264 C 66.056 126.611,71.000 129.060,71.000 133.027 M111.000 133.000 C 111.000 136.578,109.471 137.062,96.500 137.588 C 82.163 138.169,77.481 135.186,83.415 129.251 C 87.033 125.633,111.000 128.890,111.000 133.000 M140.518 144.793 C 147.124 163.647,146.251 165.562,130.674 166.405 L 119.681 167.000 132.817 184.398 C 145.702 201.465,147.787 208.044,140.286 207.965 C 137.624 207.937,109.825 173.840,103.342 162.652 C 100.103 157.062,105.791 154.000,119.412 154.000 C 128.969 154.000,132.063 153.349,131.297 151.500 C 124.918 136.119,124.995 127.134,131.494 128.372 C 133.861 128.823,136.793 134.158,140.518 144.793 M329.000 212.719 C 331.562 216.629,331.999 223.750,331.546 254.219 L 331.000 291.000 314.171 291.586 C 292.946 292.326,294.068 294.559,294.031 251.500 C 293.994 208.821,294.370 208.000,313.954 208.000 C 324.308 208.000,326.322 208.632,329.000 212.719 M306.000 249.000 L 306.000 280.000 313.000 280.000 L 320.000 280.000 320.000 249.000 L 320.000 218.000 313.000 218.000 L 306.000 218.000 306.000 249.000 M282.000 232.000 C 285.585 235.585,285.997 238.643,285.969 261.500 C 285.931 293.437,286.684 292.313,265.829 291.586 L 249.000 291.000 248.442 263.222 C 247.762 229.386,248.465 228.000,266.310 228.000 C 275.333 228.000,278.912 228.912,282.000 232.000 M258.000 259.000 L 258.000 280.000 266.000 280.000 L 274.000 280.000 274.000 259.000 L 274.000 238.000 266.000 238.000 L 258.000 238.000 258.000 259.000 M234.772 251.748 C 237.532 254.797,238.055 258.801,237.582 273.248 L 237.000 291.000 220.613 291.579 C 200.657 292.284,199.170 290.693,200.346 269.884 C 201.377 251.643,204.649 248.000,220.000 248.000 C 228.585 248.000,232.213 248.921,234.772 251.748 M212.000 269.000 L 212.000 280.000 220.000 280.000 L 228.000 280.000 228.000 269.000 L 228.000 258.000 220.000 258.000 L 212.000 258.000 212.000 269.000 " stroke="none" fill="#000000" fill-rule="evenodd"></path></g></svg>